<svg width="30" height="30" viewBox="0 0 30 30" fill="none" xmlns="http://www.w3.org/2000/svg">
<g clip-path="url(#clip0_1_3163)">
<path d="M30.0049 15C30.0049 6.71507 23.2898 0 15.0049 0C6.71995 0 0.00488281 6.71507 0.00488281 15C0.00488281 22.4877 5.48707 28.6932 12.6624 29.8192V19.3397H8.85694V15H12.6624V11.6959C12.6624 7.93973 14.898 5.86027 18.3254 5.86027C19.9693 5.86027 21.6871 6.15616 21.6871 6.15616V9.84658H19.7967C17.9309 9.84658 17.3556 11.0055 17.3556 12.189V15H21.5145L20.8487 19.3397H17.3556V29.8192C24.5227 28.6932 30.0049 22.4877 30.0049 15Z" fill="#1877F2"/>
</g>
<defs>
<clipPath id="clip0_1_3163">
<rect width="30" height="30" fill="white"/>
</clipPath>
</defs>
</svg>
