<svg width="30" height="30" viewBox="0 0 30 30" fill="none" xmlns="http://www.w3.org/2000/svg">
<g clip-path="url(#clip0_1_3165)">
<path d="M15.0049 30C23.2892 30 30.0049 23.2843 30.0049 15C30.0049 6.71573 23.2892 0 15.0049 0C6.72061 0 0.00488281 6.71573 0.00488281 15C0.00488281 23.2843 6.72061 30 15.0049 30Z" fill="#2DAAE1"/>
<path d="M24.6224 9.03328C23.9149 9.34723 23.155 9.55947 22.356 9.65487C23.1714 9.16657 23.7961 8.39279 24.0911 7.47187C23.3165 7.93194 22.4688 8.25583 21.5847 8.42946C20.8653 7.66261 19.8394 7.18384 18.7044 7.18384C16.5258 7.18384 14.7589 8.94995 14.7589 11.1298C14.7589 11.4387 14.7937 11.74 14.8606 12.0293C11.581 11.8645 8.6735 10.2935 6.72733 7.90648C6.3875 8.48946 6.19299 9.16728 6.19299 9.89049C6.19299 11.2593 6.88971 12.4671 7.94836 13.1745C7.32166 13.1551 6.7087 12.9859 6.16075 12.6812V12.731C6.16075 14.6431 7.52072 16.2374 9.32601 16.6C8.99438 16.6909 8.64636 16.7383 8.28631 16.7383C8.03174 16.7383 7.78476 16.7142 7.54349 16.6689C8.04564 18.236 9.50296 19.3768 11.2292 19.409C9.87869 20.4677 8.177 21.0987 6.32878 21.0987C6.01044 21.0987 5.69582 21.0797 5.38696 21.0425C7.13353 22.1624 9.20729 22.8162 11.4358 22.8162C18.6936 22.8162 22.663 16.8034 22.663 11.5891C22.663 11.4179 22.6592 11.248 22.6509 11.0787C23.4243 10.5193 24.0919 9.82669 24.6224 9.03328Z" fill="white"/>
</g>
<defs>
<clipPath id="clip0_1_3165">
<rect width="30" height="30" fill="white"/>
</clipPath>
</defs>
</svg>
